<svg viewBox="0 0 512 512" xmlns="http://www.w3.org/2000/svg" aria-label="Files" role="img">
  <defs>
  <linearGradient id="nc-bg" x1="85%" y1="5%" x2="15%" y2="95%">
    <stop offset="0%" stop-color="#18A8F5"/>
    <stop offset="45%" stop-color="#0D98E4"/>
    <stop offset="100%" stop-color="#078BD3"/>
  </linearGradient>
</defs>

<path
  fill="url(#nc-bg)"
  d="M213 0H299C416 0 512 96 512 213V299C512 416 416 512 299 512H213C96 512 0 416 0 299V213C0 96 96 0 213 0Z"
/>
  <g fill="#fff" transform="translate(76 76) scale(.375)">
    <path transform="translate(0 960)" d="M168-192q-29 0-50.5-21.5T96-264v-432q0-30 21.5-51t50.5-21h216l96 96h312q30 0 51 21t21 51v336q0 29-21 50.5T792-192H168Z"/>
  </g>
</svg>
