<svg viewBox="0 0 512 512" xmlns="http://www.w3.org/2000/svg" aria-label="Music" role="img">
  <defs>
  <linearGradient id="nc-bg" x1="85%" y1="5%" x2="15%" y2="95%">
    <stop offset="0%" stop-color="#18A8F5"/>
    <stop offset="45%" stop-color="#0D98E4"/>
    <stop offset="100%" stop-color="#078BD3"/>
  </linearGradient>
</defs>

<path
  fill="url(#nc-bg)"
  d="M213 0H299C416 0 512 96 512 213V299C512 416 416 512 299 512H213C96 512 0 416 0 299V213C0 96 96 0 213 0Z"
/>
  <g fill="#fff" transform="translate(96 76) scale(11)">
    <path d="M26.72 1.002c-4.714.76-11.023 1.542-15.724 2.344-1.245.607-.965 2.171-1.02 3.306v15.192c-2.624-.493-5.823 1.675-5.962 5.107-.226 2.137 1.668 3.997 3.729 4.047 3.689.09 6.213-2.358 6.253-5.454-.04-5.199.012-10.4 0-15.599.571-.042 9.222-1.693 10-1.803v11.683c-2.293-.549-5.224.958-5.951 4.035-.307 1.725.273 3.89 2.024 4.62 3.416 1.57 8.106-1.61 7.916-5.342-.053-6.932.043-13.868 0-20.801-.09-.652-.532-1.382-1.265-1.335Z"/>
  </g>
</svg>
